<svg data-v-d3f97b9e="" xmlns="http://www.w3.org/2000/svg" viewBox="0 0 814 90"><!----><!----><!----><g data-v-d3f97b9e="" id="193be759-7591-46c2-a183-a9df91c2aac4" fill="black" transform="matrix(3.931848155293183,0,0,3.931848155293183,237.35213829633977,7.293576988800098)"><path d="M9.80 5.80L9.80 5.80L9.80 5.80Q9.80 7.31 8.62 8.10L8.62 8.10L8.62 8.10Q7.45 8.89 5.21 8.89L5.21 8.89L4.02 8.89L4.02 11.35L4.02 11.35Q4.02 11.89 4.09 12.21L4.09 12.21L4.09 12.21Q4.16 12.54 4.38 12.73L4.38 12.73L4.38 12.73Q4.61 12.91 5.00 12.96L5.00 12.96L5.00 12.96Q5.39 13.02 6.05 13.02L6.05 13.02L6.05 13.58L0.49 13.58L0.49 13.02L0.49 13.02Q0.95 13.01 1.25 12.94L1.25 12.94L1.25 12.94Q1.54 12.87 1.69 12.70L1.69 12.70L1.69 12.70Q1.85 12.53 1.90 12.22L1.90 12.22L1.90 12.22Q1.96 11.91 1.96 11.42L1.96 11.42L1.96 4.96L1.96 4.96Q1.96 4.47 1.91 4.16L1.91 4.16L1.91 4.16Q1.86 3.86 1.72 3.69L1.72 3.69L1.72 3.69Q1.58 3.51 1.32 3.45L1.32 3.45L1.32 3.45Q1.06 3.39 0.64 3.36L0.64 3.36L0.64 2.80L5.49 2.80L5.49 2.80Q7.62 2.80 8.71 3.56L8.71 3.56L8.71 3.56Q9.80 4.31 9.80 5.80ZM4.02 3.82L4.02 8.05L4.93 8.05L4.93 8.05Q6.29 8.05 6.92 7.50L6.92 7.50L6.92 7.50Q7.55 6.96 7.55 5.78L7.55 5.78L7.55 5.78Q7.55 4.73 7.01 4.16L7.01 4.16L7.01 4.16Q6.48 3.58 5.35 3.58L5.35 3.58L4.27 3.58L4.27 3.58Q4.02 3.58 4.02 3.82L4.02 3.82ZM13.65 10.74L13.65 11.41L13.65 11.41Q13.65 11.96 13.70 12.27L13.70 12.27L13.70 12.27Q13.75 12.59 13.90 12.75L13.90 12.75L13.90 12.75Q14.06 12.92 14.35 12.97L14.35 12.97L14.35 12.97Q14.64 13.02 15.13 13.02L15.13 13.02L15.13 13.58L10.46 13.58L10.46 13.02L10.46 13.02Q10.88 12.99 11.13 12.94L11.13 12.94L11.13 12.94Q11.38 12.88 11.51 12.71L11.51 12.71L11.51 12.71Q11.63 12.54 11.67 12.23L11.67 12.23L11.67 12.23Q11.70 11.91 11.70 11.38L11.70 11.38L11.70 9.67L11.70 9.67Q11.70 8.81 11.66 8.29L11.66 8.29L11.66 8.29Q11.62 7.77 11.48 7.49L11.48 7.49L11.48 7.49Q11.34 7.21 11.08 7.12L11.08 7.12L11.08 7.12Q10.82 7.03 10.40 7.03L10.40 7.03L10.40 6.54L13.20 6.02L13.43 7.63L13.48 7.63L13.48 7.63Q13.86 6.89 14.48 6.45L14.48 6.45L14.48 6.45Q15.09 6.02 15.78 6.02L15.78 6.02L15.78 6.02Q16.31 6.02 16.65 6.29L16.65 6.29L16.65 6.29Q16.98 6.55 16.98 6.96L16.98 6.96L16.98 6.96Q16.98 7.41 16.72 7.71L16.72 7.71L16.72 7.71Q16.46 8.02 16.02 8.02L16.02 8.02L16.02 8.02Q15.81 8.02 15.64 7.94L15.64 7.94L15.64 7.94Q15.47 7.85 15.34 7.75L15.34 7.75L15.34 7.75Q15.20 7.64 15.07 7.55L15.07 7.55L15.07 7.55Q14.94 7.46 14.80 7.46L14.80 7.46L14.80 7.46Q14.53 7.46 14.29 7.81L14.29 7.81L14.29 7.81Q14.06 8.16 13.90 8.75L13.90 8.75L13.90 8.75Q13.79 9.17 13.72 9.70L13.72 9.70L13.72 9.70Q13.65 10.22 13.65 10.74L13.65 10.74ZM21.53 6.02L21.53 6.02L21.53 6.02Q22.37 6.02 23.12 6.31L23.12 6.31L23.12 6.31Q23.87 6.59 24.44 7.10L24.44 7.10L24.44 7.10Q25.00 7.60 25.33 8.29L25.33 8.29L25.33 8.29Q25.66 8.99 25.66 9.81L25.66 9.81L25.66 9.81Q25.66 10.67 25.33 11.38L25.33 11.38L25.33 11.38Q25.00 12.10 24.44 12.61L24.44 12.61L24.44 12.61Q23.87 13.13 23.12 13.43L23.12 13.43L23.12 13.43Q22.37 13.72 21.53 13.72L21.53 13.72L21.53 13.72Q20.71 13.72 19.96 13.43L19.96 13.43L19.96 13.43Q19.22 13.15 18.66 12.63L18.66 12.63L18.66 12.63Q18.10 12.11 17.78 11.39L17.78 11.39L17.78 11.39Q17.46 10.67 17.46 9.81L17.46 9.81L17.46 9.81Q17.46 8.99 17.78 8.29L17.78 8.29L17.78 8.29Q18.10 7.59 18.66 7.08L18.66 7.08L18.66 7.08Q19.22 6.58 19.96 6.30L19.96 6.30L19.96 6.30Q20.71 6.02 21.53 6.02ZM21.53 6.83L21.53 6.83L21.53 6.83Q21.11 6.83 20.76 7.05L20.76 7.05L20.76 7.05Q20.41 7.27 20.17 7.66L20.17 7.66L20.17 7.66Q19.92 8.05 19.79 8.60L19.79 8.60L19.79 8.60Q19.66 9.16 19.66 9.83L19.66 9.83L19.66 9.83Q19.66 10.53 19.79 11.09L19.79 11.09L19.79 11.09Q19.92 11.65 20.17 12.04L20.17 12.04L20.17 12.04Q20.41 12.43 20.76 12.65L20.76 12.65L20.76 12.65Q21.10 12.87 21.53 12.87L21.53 12.87L21.53 12.87Q21.97 12.87 22.32 12.65L22.32 12.65L22.32 12.65Q22.68 12.43 22.93 12.03L22.93 12.03L22.93 12.03Q23.18 11.63 23.32 11.07L23.32 11.07L23.32 11.07Q23.46 10.51 23.46 9.83L23.46 9.83L23.46 9.83Q23.46 9.16 23.32 8.61L23.32 8.61L23.32 8.61Q23.18 8.06 22.93 7.67L22.93 7.67L22.93 7.67Q22.68 7.27 22.32 7.05L22.32 7.05L22.32 7.05Q21.97 6.83 21.53 6.83ZM29.23 6.08L29.23 7.07L29.29 7.07L29.29 7.07Q30.21 6.02 31.70 6.02L31.70 6.02L31.70 6.02Q32.51 6.02 33.19 6.31L33.19 6.31L33.19 6.31Q33.87 6.59 34.36 7.10L34.36 7.10L34.36 7.10Q34.86 7.62 35.13 8.32L35.13 8.32L35.13 8.32Q35.41 9.03 35.41 9.87L35.41 9.87L35.41 9.87Q35.41 10.71 35.13 11.41L35.13 11.41L35.13 11.41Q34.86 12.11 34.37 12.63L34.37 12.63L34.37 12.63Q33.88 13.15 33.20 13.43L33.20 13.43L33.20 13.43Q32.52 13.72 31.72 13.72L31.72 13.72L31.72 13.72Q30.37 13.72 29.65 12.80L29.65 12.80L29.60 12.80L29.60 14.74L29.60 14.74Q29.60 15.30 29.65 15.64L29.65 15.64L29.65 15.64Q29.71 15.97 29.89 16.16L29.89 16.16L29.89 16.16Q30.07 16.34 30.40 16.41L30.40 16.41L30.40 16.41Q30.73 16.48 31.28 16.49L31.28 16.49L31.28 17.08L26.45 17.08L26.45 16.49L26.45 16.49Q26.82 16.48 27.06 16.41L27.06 16.41L27.06 16.41Q27.30 16.34 27.43 16.16L27.43 16.16L27.43 16.16Q27.57 15.97 27.61 15.66L27.61 15.66L27.61 15.66Q27.66 15.34 27.66 14.84L27.66 14.84L27.66 9.63L27.66 9.63Q27.66 8.99 27.64 8.41L27.64 8.41L27.64 8.41Q27.61 7.83 27.57 7.59L27.57 7.59L27.57 7.59Q27.50 7.27 27.25 7.14L27.25 7.14L27.25 7.14Q27.01 7.01 26.42 7.01L26.42 7.01L26.42 6.47L29.23 6.08ZM31.61 6.82L31.61 6.82L31.61 6.82Q31.16 6.82 30.76 7.01L30.76 7.01L30.76 7.01Q30.35 7.21 30.11 7.53L30.11 7.53L30.11 7.53Q29.88 7.85 29.75 8.34L29.75 8.34L29.75 8.34Q29.62 8.82 29.62 9.38L29.62 9.38L29.62 10.33L29.62 10.33Q29.62 11.33 30.11 12.03L30.11 12.03L30.11 12.03Q30.65 12.80 31.61 12.80L31.61 12.80L31.61 12.80Q32.47 12.80 32.88 12.09L32.88 12.09L32.88 12.09Q33.29 11.38 33.29 9.90L33.29 9.90L33.29 9.90Q33.29 6.82 31.61 6.82ZM43.11 11.79L43.50 12.28L43.50 12.28Q42.22 13.72 40.32 13.72L40.32 13.72L40.32 13.72Q39.45 13.72 38.75 13.45L38.75 13.45L38.75 13.45Q38.04 13.17 37.53 12.68L37.53 12.68L37.53 12.68Q37.03 12.18 36.75 11.49L36.75 11.49L36.75 11.49Q36.47 10.81 36.47 9.97L36.47 9.97L36.47 9.97Q36.47 9.10 36.76 8.38L36.76 8.38L36.76 8.38Q37.06 7.66 37.60 7.13L37.60 7.13L37.60 7.13Q38.14 6.61 38.87 6.31L38.87 6.31L38.87 6.31Q39.61 6.02 40.49 6.02L40.49 6.02L40.49 6.02Q41.97 6.02 42.80 6.82L42.80 6.82L42.80 6.82Q43.62 7.62 43.62 9.06L43.62 9.06L43.62 9.06Q43.62 9.28 43.55 9.33L43.55 9.33L43.55 9.33Q43.48 9.38 43.16 9.38L43.16 9.38L38.65 9.38L38.65 9.38Q38.60 9.51 38.60 9.84L38.60 9.84L38.60 9.84Q38.60 11.21 39.19 12.01L39.19 12.01L39.19 12.01Q39.79 12.81 40.81 12.81L40.81 12.81L40.81 12.81Q41.40 12.81 41.98 12.54L41.98 12.54L41.98 12.54Q42.56 12.28 43.11 11.79L43.11 11.79ZM38.75 8.60L40.78 8.60L40.78 8.60Q41.34 8.60 41.50 8.53L41.50 8.53L41.50 8.53Q41.66 8.47 41.66 8.23L41.66 8.23L41.66 8.23Q41.66 7.62 41.31 7.22L41.31 7.22L41.31 7.22Q40.96 6.83 40.43 6.83L40.43 6.83L40.43 6.83Q39.83 6.83 39.36 7.33L39.36 7.33L39.36 7.33Q38.89 7.83 38.75 8.60L38.75 8.60ZM47.74 10.74L47.74 11.41L47.74 11.41Q47.74 11.96 47.79 12.27L47.79 12.27L47.79 12.27Q47.84 12.59 47.99 12.75L47.99 12.75L47.99 12.75Q48.15 12.92 48.44 12.97L48.44 12.97L48.44 12.97Q48.73 13.02 49.22 13.02L49.22 13.02L49.22 13.58L44.55 13.58L44.55 13.02L44.55 13.02Q44.97 12.99 45.22 12.94L45.22 12.94L45.22 12.94Q45.47 12.88 45.60 12.71L45.60 12.71L45.60 12.71Q45.72 12.54 45.76 12.23L45.76 12.23L45.76 12.23Q45.79 11.91 45.79 11.38L45.79 11.38L45.79 9.67L45.79 9.67Q45.79 8.81 45.75 8.29L45.75 8.29L45.75 8.29Q45.71 7.77 45.57 7.49L45.57 7.49L45.57 7.49Q45.43 7.21 45.17 7.12L45.17 7.12L45.17 7.12Q44.91 7.03 44.49 7.03L44.49 7.03L44.49 6.54L47.29 6.02L47.52 7.63L47.57 7.63L47.57 7.63Q47.95 6.89 48.57 6.45L48.57 6.45L48.57 6.45Q49.18 6.02 49.87 6.02L49.87 6.02L49.87 6.02Q50.40 6.02 50.74 6.29L50.74 6.29L50.74 6.29Q51.07 6.55 51.07 6.96L51.07 6.96L51.07 6.96Q51.07 7.41 50.81 7.71L50.81 7.71L50.81 7.71Q50.55 8.02 50.11 8.02L50.11 8.02L50.11 8.02Q49.90 8.02 49.73 7.94L49.73 7.94L49.73 7.94Q49.56 7.85 49.43 7.75L49.43 7.75L49.43 7.75Q49.29 7.64 49.16 7.55L49.16 7.55L49.16 7.55Q49.03 7.46 48.89 7.46L48.89 7.46L48.89 7.46Q48.62 7.46 48.38 7.81L48.38 7.81L48.38 7.81Q48.15 8.16 47.99 8.75L47.99 8.75L47.99 8.75Q47.88 9.17 47.81 9.70L47.81 9.70L47.81 9.70Q47.74 10.22 47.74 10.74L47.74 10.74ZM52.47 6.93L51.45 6.93L51.45 6.30L51.45 6.30Q52.29 6.06 52.86 5.58L52.86 5.58L52.86 5.58Q53.42 5.10 53.70 4.47L53.70 4.47L54.42 4.47L54.42 6.16L56.03 6.16L56.03 6.93L54.42 6.93L54.42 11.23L54.42 11.23Q54.42 12.10 54.61 12.46L54.61 12.46L54.61 12.46Q54.80 12.82 55.24 12.82L55.24 12.82L55.24 12.82Q55.79 12.82 56.07 12.32L56.07 12.32L56.36 12.73L56.36 12.73Q55.97 13.72 54.52 13.72L54.52 13.72L54.52 13.72Q53.55 13.72 53.01 13.27L53.01 13.27L53.01 13.27Q52.47 12.82 52.47 12.01L52.47 12.01L52.47 6.93ZM63.67 9.06L60.47 15.78L60.47 15.78Q60.31 16.09 60.08 16.35L60.08 16.35L60.08 16.35Q59.85 16.62 59.56 16.81L59.56 16.81L59.56 16.81Q59.28 17.00 58.97 17.11L58.97 17.11L58.97 17.11Q58.66 17.22 58.35 17.22L58.35 17.22L58.35 17.22Q57.89 17.22 57.61 17.00L57.61 17.00L57.61 17.00Q57.33 16.77 57.33 16.39L57.33 16.39L57.33 16.39Q57.33 16.04 57.58 15.85L57.58 15.85L57.58 15.85Q57.82 15.65 58.37 15.61L58.37 15.61L58.37 15.61Q59.61 15.51 59.98 14.83L59.98 14.83L60.35 14.10L57.88 7.97L57.88 7.97Q57.71 7.56 57.59 7.32L57.59 7.32L57.59 7.32Q57.47 7.08 57.33 6.95L57.33 6.95L57.33 6.95Q57.19 6.82 57.01 6.78L57.01 6.78L57.01 6.78Q56.83 6.73 56.56 6.72L56.56 6.72L56.56 6.16L60.80 6.16L60.80 6.72L60.80 6.72Q60.26 6.72 60.04 6.83L60.04 6.83L60.04 6.83Q59.82 6.93 59.82 7.21L59.82 7.21L59.82 7.21Q59.82 7.32 59.86 7.47L59.86 7.47L59.86 7.47Q59.89 7.62 59.95 7.77L59.95 7.77L61.38 11.86L61.43 11.86L62.64 9.13L62.64 9.13Q62.82 8.69 62.94 8.41L62.94 8.41L62.94 8.41Q63.07 8.12 63.13 7.92L63.13 7.92L63.13 7.92Q63.20 7.71 63.22 7.59L63.22 7.59L63.22 7.59Q63.25 7.46 63.25 7.34L63.25 7.34L63.25 7.34Q63.25 6.97 63.05 6.85L63.05 6.85L63.05 6.85Q62.85 6.72 62.23 6.72L62.23 6.72L62.23 6.16L65.60 6.16L65.60 6.72L65.60 6.72Q65.32 6.72 65.13 6.80L65.13 6.80L65.13 6.80Q64.93 6.87 64.73 7.11L64.73 7.11L64.73 7.11Q64.53 7.35 64.28 7.82L64.28 7.82L64.28 7.82Q64.04 8.29 63.67 9.06L63.67 9.06ZM75.05 3.67L75.32 2.80L76.01 2.80L75.73 6.34L75.17 6.34L75.17 6.34Q74.87 5.05 74.03 4.31L74.03 4.31L74.03 4.31Q73.18 3.57 71.97 3.57L71.97 3.57L71.97 3.57Q71.15 3.57 70.50 3.90L70.50 3.90L70.50 3.90Q69.86 4.23 69.42 4.84L69.42 4.84L69.42 4.84Q68.98 5.45 68.75 6.32L68.75 6.32L68.75 6.32Q68.52 7.20 68.52 8.29L68.52 8.29L68.52 8.29Q68.52 10.46 69.41 11.63L69.41 11.63L69.41 11.63Q70.29 12.80 72.03 12.80L72.03 12.80L72.03 12.80Q73.43 12.80 74.35 12.04L74.35 12.04L74.35 12.04Q75.26 11.28 75.66 9.79L75.66 9.79L76.27 9.79L76.27 13.58L75.61 13.58L75.42 12.47L75.42 12.47Q73.88 13.72 71.68 13.72L71.68 13.72L71.68 13.72Q70.41 13.72 69.37 13.34L69.37 13.34L69.37 13.34Q68.33 12.96 67.61 12.27L67.61 12.27L67.61 12.27Q66.88 11.58 66.48 10.58L66.48 10.58L66.48 10.58Q66.08 9.59 66.08 8.37L66.08 8.37L66.08 8.37Q66.08 7.10 66.50 6.05L66.50 6.05L66.50 6.05Q66.92 5.00 67.68 4.24L67.68 4.24L67.68 4.24Q68.45 3.49 69.50 3.07L69.50 3.07L69.50 3.07Q70.56 2.66 71.85 2.66L71.85 2.66L71.85 2.66Q72.70 2.66 73.44 2.90L73.44 2.90L73.44 2.90Q74.19 3.14 75.05 3.67L75.05 3.67ZM81.54 6.02L81.54 6.02L81.54 6.02Q82.38 6.02 83.13 6.31L83.13 6.31L83.13 6.31Q83.87 6.59 84.44 7.10L84.44 7.10L84.44 7.10Q85.01 7.60 85.34 8.29L85.34 8.29L85.34 8.29Q85.67 8.99 85.67 9.81L85.67 9.81L85.67 9.81Q85.67 10.67 85.34 11.38L85.34 11.38L85.34 11.38Q85.01 12.10 84.44 12.61L84.44 12.61L84.44 12.61Q83.87 13.13 83.13 13.43L83.13 13.43L83.13 13.43Q82.38 13.72 81.54 13.72L81.54 13.72L81.54 13.72Q80.71 13.72 79.97 13.43L79.97 13.43L79.97 13.43Q79.23 13.15 78.67 12.63L78.67 12.63L78.67 12.63Q78.11 12.11 77.78 11.39L77.78 11.39L77.78 11.39Q77.46 10.67 77.46 9.81L77.46 9.81L77.46 9.81Q77.46 8.99 77.78 8.29L77.78 8.29L77.78 8.29Q78.11 7.59 78.67 7.08L78.67 7.08L78.67 7.08Q79.23 6.58 79.97 6.30L79.97 6.30L79.97 6.30Q80.71 6.02 81.54 6.02ZM81.54 6.83L81.54 6.83L81.54 6.83Q81.12 6.83 80.77 7.05L80.77 7.05L80.77 7.05Q80.42 7.27 80.17 7.66L80.17 7.66L80.17 7.66Q79.93 8.05 79.79 8.60L79.79 8.60L79.79 8.60Q79.66 9.16 79.66 9.83L79.66 9.83L79.66 9.83Q79.66 10.53 79.79 11.09L79.79 11.09L79.79 11.09Q79.93 11.65 80.17 12.04L80.17 12.04L80.17 12.04Q80.42 12.43 80.76 12.65L80.76 12.65L80.76 12.65Q81.10 12.87 81.54 12.87L81.54 12.87L81.54 12.87Q81.97 12.87 82.33 12.65L82.33 12.65L82.33 12.65Q82.68 12.43 82.94 12.03L82.94 12.03L82.94 12.03Q83.19 11.63 83.33 11.07L83.33 11.07L83.33 11.07Q83.47 10.51 83.47 9.83L83.47 9.83L83.47 9.83Q83.47 9.16 83.33 8.61L83.33 8.61L83.33 8.61Q83.19 8.06 82.94 7.67L82.94 7.67L82.94 7.67Q82.68 7.27 82.33 7.05L82.33 7.05L82.33 7.05Q81.97 6.83 81.54 6.83ZM89.78 9.37L89.78 11.30L89.78 11.30Q89.78 11.87 89.82 12.20L89.82 12.20L89.82 12.20Q89.85 12.53 89.97 12.71L89.97 12.71L89.97 12.71Q90.09 12.88 90.34 12.94L90.34 12.94L90.34 12.94Q90.58 12.99 91.00 13.02L91.00 13.02L91.00 13.58L86.59 13.58L86.59 13.02L86.59 13.02Q87.00 12.99 87.24 12.94L87.24 12.94L87.24 12.94Q87.49 12.88 87.62 12.71L87.62 12.71L87.62 12.71Q87.75 12.54 87.79 12.24L87.79 12.24L87.79 12.24Q87.84 11.93 87.84 11.40L87.84 11.40L87.84 9.65L87.84 9.65Q87.84 8.82 87.81 8.31L87.81 8.31L87.81 8.31Q87.78 7.80 87.74 7.62L87.74 7.62L87.74 7.62Q87.70 7.43 87.63 7.31L87.63 7.31L87.63 7.31Q87.56 7.20 87.42 7.13L87.42 7.13L87.42 7.13Q87.28 7.07 87.07 7.05L87.07 7.05L87.07 7.05Q86.86 7.03 86.53 7.03L86.53 7.03L86.53 6.55L89.24 6.02L89.42 7.25L89.47 7.25L89.47 7.25Q89.94 6.66 90.57 6.34L90.57 6.34L90.57 6.34Q91.20 6.02 91.95 6.02L91.95 6.02L91.95 6.02Q92.85 6.02 93.40 6.26L93.40 6.26L93.40 6.26Q93.95 6.51 94.39 7.08L94.39 7.08L94.39 7.08Q94.63 7.41 94.81 7.92L94.81 7.92L94.81 7.92Q94.99 8.43 94.99 9.32L94.99 9.32L94.99 11.30L94.99 11.30Q94.99 11.87 95.03 12.20L95.03 12.20L95.03 12.20Q95.06 12.53 95.18 12.71L95.18 12.71L95.18 12.71Q95.30 12.88 95.54 12.94L95.54 12.94L95.54 12.94Q95.77 12.99 96.18 13.02L96.18 13.02L96.18 13.58L91.80 13.58L91.80 13.02L91.80 13.02Q92.22 13.01 92.46 12.94L92.46 12.94L92.46 12.94Q92.71 12.88 92.83 12.71L92.83 12.71L92.83 12.71Q92.96 12.54 93.00 12.23L93.00 12.23L93.00 12.23Q93.04 11.91 93.04 11.40L93.04 11.40L93.04 9.49L93.04 9.49Q93.04 8.78 92.96 8.29L92.96 8.29L92.96 8.29Q92.88 7.80 92.69 7.50L92.69 7.50L92.69 7.50Q92.50 7.20 92.19 7.06L92.19 7.06L92.19 7.06Q91.88 6.93 91.42 6.93L91.42 6.93L91.42 6.93Q90.97 6.93 90.65 7.18L90.65 7.18L90.65 7.18Q90.33 7.43 90.09 7.88L90.09 7.88L90.09 7.88Q89.96 8.13 89.87 8.53L89.87 8.53L89.87 8.53Q89.78 8.93 89.78 9.37L89.78 9.37ZM97.86 13.09L97.55 13.58L97.12 13.58L97.12 11.03L97.71 11.03L97.71 11.03Q97.94 12.04 98.39 12.50L98.39 12.50L98.39 12.50Q98.84 12.96 99.55 12.96L99.55 12.96L99.55 12.96Q100.07 12.96 100.36 12.75L100.36 12.75L100.36 12.75Q100.65 12.53 100.65 12.15L100.65 12.15L100.65 12.15Q100.65 11.76 100.30 11.39L100.30 11.39L100.30 11.39Q99.95 11.02 99.16 10.60L99.16 10.60L99.16 10.60Q98.10 10.02 97.64 9.46L97.64 9.46L97.64 9.46Q97.17 8.89 97.17 8.18L97.17 8.18L97.17 8.18Q97.17 7.71 97.35 7.31L97.35 7.31L97.35 7.31Q97.52 6.92 97.83 6.62L97.83 6.62L97.83 6.62Q98.13 6.33 98.55 6.17L98.55 6.17L98.55 6.17Q98.97 6.01 99.46 6.01L99.46 6.01L99.46 6.01Q99.89 6.01 100.32 6.13L100.32 6.13L100.32 6.13Q100.74 6.26 101.07 6.48L101.07 6.48L101.32 6.15L101.68 6.15L101.68 8.26L101.14 8.26L101.14 8.26Q100.81 7.46 100.47 7.11L100.47 7.11L100.47 7.11Q100.13 6.76 99.64 6.76L99.64 6.76L99.64 6.76Q99.25 6.76 99.02 6.97L99.02 6.97L99.02 6.97Q98.78 7.18 98.78 7.53L98.78 7.53L98.78 7.53Q98.78 7.92 99.13 8.27L99.13 8.27L99.13 8.27Q99.47 8.62 100.27 9.04L100.27 9.04L100.27 9.04Q100.83 9.35 101.23 9.65L101.23 9.65L101.23 9.65Q101.64 9.94 101.89 10.24L101.89 10.24L101.89 10.24Q102.14 10.54 102.26 10.87L102.26 10.87L102.26 10.87Q102.38 11.20 102.38 11.58L102.38 11.58L102.38 11.58Q102.38 12.07 102.20 12.46L102.20 12.46L102.20 12.46Q102.02 12.85 101.68 13.13L101.68 13.13L101.68 13.13Q101.35 13.41 100.88 13.57L100.88 13.57L100.88 13.57Q100.41 13.72 99.83 13.72L99.83 13.72L99.83 13.72Q99.23 13.72 98.71 13.56L98.71 13.56L98.71 13.56Q98.20 13.40 97.86 13.09L97.86 13.09ZM109.40 9.91L109.40 8.46L109.40 8.46Q109.40 7.90 109.37 7.57L109.37 7.57L109.37 7.57Q109.34 7.24 109.21 7.06L109.21 7.06L109.21 7.06Q109.09 6.89 108.84 6.83L108.84 6.83L108.84 6.83Q108.60 6.76 108.18 6.72L108.18 6.72L108.18 6.16L111.34 6.16L111.34 10.40L111.34 10.40Q111.34 11.26 111.36 11.74L111.36 11.74L111.36 11.74Q111.38 12.22 111.44 12.46L111.44 12.46L111.44 12.46Q111.48 12.64 111.54 12.75L111.54 12.75L111.54 12.75Q111.59 12.85 111.72 12.91L111.72 12.91L111.72 12.91Q111.85 12.98 112.06 13.00L112.06 13.00L112.06 13.00Q112.28 13.02 112.63 13.02L112.63 13.02L112.63 13.57L109.84 13.73L109.69 12.49L109.63 12.49L109.63 12.49Q109.27 13.08 108.61 13.40L108.61 13.40L108.61 13.40Q107.95 13.72 107.14 13.72L107.14 13.72L107.14 13.72Q105.64 13.72 104.86 12.66L104.86 12.66L104.86 12.66Q104.26 11.84 104.26 10.35L104.26 10.35L104.26 8.46L104.26 8.46Q104.26 7.88 104.23 7.55L104.23 7.55L104.23 7.55Q104.20 7.22 104.08 7.06L104.08 7.06L104.08 7.06Q103.96 6.89 103.73 6.83L103.73 6.83L103.73 6.83Q103.49 6.76 103.07 6.72L103.07 6.72L103.07 6.16L106.20 6.16L106.20 10.12L106.20 10.12Q106.20 11.54 106.55 12.17L106.55 12.17L106.55 12.17Q106.90 12.81 107.67 12.81L107.67 12.81L107.67 12.81Q108.50 12.81 108.95 12.05L108.95 12.05L108.95 12.05Q109.40 11.33 109.40 9.91L109.40 9.91ZM116.27 1.96L116.27 11.28L116.27 11.28Q116.27 11.84 116.31 12.18L116.31 12.18L116.31 12.18Q116.35 12.52 116.48 12.70L116.48 12.70L116.48 12.70Q116.61 12.88 116.84 12.94L116.84 12.94L116.84 12.94Q117.08 13.01 117.49 13.02L117.49 13.02L117.49 13.58L113.08 13.58L113.08 13.02L113.08 13.02Q113.47 13.01 113.72 12.93L113.72 12.93L113.72 12.93Q113.96 12.85 114.09 12.68L114.09 12.68L114.09 12.68Q114.23 12.50 114.28 12.19L114.28 12.19L114.28 12.19Q114.32 11.87 114.32 11.38L114.32 11.38L114.32 5.60L114.32 5.60Q114.32 4.79 114.30 4.26L114.30 4.26L114.30 4.26Q114.27 3.74 114.23 3.54L114.23 3.54L114.23 3.54Q114.16 3.19 113.91 3.08L113.91 3.08L113.91 3.08Q113.67 2.97 113.02 2.97L113.02 2.97L113.02 2.49L116.27 1.96ZM119.15 6.93L118.13 6.93L118.13 6.30L118.13 6.30Q118.97 6.06 119.54 5.58L119.54 5.58L119.54 5.58Q120.11 5.10 120.39 4.47L120.39 4.47L121.10 4.47L121.10 6.16L122.71 6.16L122.71 6.93L121.10 6.93L121.10 11.23L121.10 11.23Q121.10 12.10 121.29 12.46L121.29 12.46L121.29 12.46Q121.48 12.82 121.93 12.82L121.93 12.82L121.93 12.82Q122.47 12.82 122.75 12.32L122.75 12.32L123.05 12.73L123.05 12.73Q122.65 13.72 121.20 13.72L121.20 13.72L121.20 13.72Q120.23 13.72 119.69 13.27L119.69 13.27L119.69 13.27Q119.15 12.82 119.15 12.01L119.15 12.01L119.15 6.93ZM127.95 10.92L127.95 9.59L127.95 9.59Q126.77 10.12 126.18 10.58L126.18 10.58L126.18 10.58Q125.58 11.03 125.58 11.52L125.58 11.52L125.58 11.52Q125.58 11.93 125.80 12.17L125.80 12.17L125.80 12.17Q126.03 12.40 126.36 12.40L126.36 12.40L126.36 12.40Q126.70 12.40 126.99 12.29L126.99 12.29L126.99 12.29Q127.29 12.17 127.50 11.97L127.50 11.97L127.50 11.97Q127.71 11.77 127.83 11.50L127.83 11.50L127.83 11.50Q127.95 11.23 127.95 10.92L127.95 10.92ZM125.97 9.70L127.95 8.85L127.95 8.26L127.95 8.26Q127.95 7.45 127.66 7.08L127.66 7.08L127.66 7.08Q127.37 6.71 126.77 6.71L126.77 6.71L126.77 6.71Q126.36 6.71 126.15 6.92L126.15 6.92L126.15 6.92Q125.94 7.14 125.76 7.64L125.76 7.64L125.76 7.64Q125.64 7.99 125.41 8.19L125.41 8.19L125.41 8.19Q125.17 8.39 124.77 8.39L124.77 8.39L124.77 8.39Q124.38 8.39 124.17 8.15L124.17 8.15L124.17 8.15Q123.96 7.91 123.96 7.48L123.96 7.48L123.96 7.48Q123.96 6.80 124.69 6.41L124.69 6.41L124.69 6.41Q125.43 6.02 126.91 6.02L126.91 6.02L126.91 6.02Q128.48 6.02 129.15 6.59L129.15 6.59L129.15 6.59Q129.82 7.15 129.82 8.48L129.82 8.48L129.82 11.55L129.82 11.55Q129.82 12.74 130.30 12.74L130.30 12.74L130.30 12.74Q130.56 12.74 130.79 12.56L130.79 12.56L131.00 12.96L131.00 12.96Q130.80 13.31 130.39 13.52L130.39 13.52L130.39 13.52Q129.98 13.72 129.46 13.72L129.46 13.72L129.46 13.72Q128.81 13.72 128.48 13.33L128.48 13.33L128.48 13.33Q128.14 12.94 128.14 12.22L128.14 12.22L128.07 12.22L128.07 12.22Q127.67 12.95 127.02 13.33L127.02 13.33L127.02 13.33Q126.38 13.71 125.55 13.71L125.55 13.71L125.55 13.71Q124.67 13.71 124.14 13.21L124.14 13.21L124.14 13.21Q123.61 12.71 123.61 11.91L123.61 11.91L123.61 11.91Q123.61 11.30 124.15 10.76L124.15 10.76L124.15 10.76Q124.70 10.22 125.97 9.70L125.97 9.70ZM134.76 9.37L134.76 11.30L134.76 11.30Q134.76 11.87 134.80 12.20L134.80 12.20L134.80 12.20Q134.83 12.53 134.95 12.71L134.95 12.71L134.95 12.71Q135.07 12.88 135.32 12.94L135.32 12.94L135.32 12.94Q135.56 12.99 135.98 13.02L135.98 13.02L135.98 13.58L131.57 13.58L131.57 13.02L131.57 13.02Q131.98 12.99 132.22 12.94L132.22 12.94L132.22 12.94Q132.47 12.88 132.60 12.71L132.60 12.71L132.60 12.71Q132.73 12.54 132.78 12.24L132.78 12.24L132.78 12.24Q132.82 11.93 132.82 11.40L132.82 11.40L132.82 9.65L132.82 9.65Q132.82 8.82 132.79 8.31L132.79 8.31L132.79 8.31Q132.76 7.80 132.72 7.62L132.72 7.62L132.72 7.62Q132.68 7.43 132.61 7.31L132.61 7.31L132.61 7.31Q132.54 7.20 132.40 7.13L132.40 7.13L132.40 7.13Q132.26 7.07 132.05 7.05L132.05 7.05L132.05 7.05Q131.84 7.03 131.52 7.03L131.52 7.03L131.52 6.55L134.22 6.02L134.40 7.25L134.46 7.25L134.46 7.25Q134.92 6.66 135.55 6.34L135.55 6.34L135.55 6.34Q136.18 6.02 136.93 6.02L136.93 6.02L136.93 6.02Q137.83 6.02 138.38 6.26L138.38 6.26L138.38 6.26Q138.94 6.51 139.37 7.08L139.37 7.08L139.37 7.08Q139.61 7.41 139.79 7.92L139.79 7.92L139.79 7.92Q139.97 8.43 139.97 9.32L139.97 9.32L139.97 11.30L139.97 11.30Q139.97 11.87 140.01 12.20L140.01 12.20L140.01 12.20Q140.04 12.53 140.16 12.71L140.16 12.71L140.16 12.71Q140.28 12.88 140.52 12.94L140.52 12.94L140.52 12.94Q140.76 12.99 141.16 13.02L141.16 13.02L141.16 13.58L136.78 13.58L136.78 13.02L136.78 13.02Q137.20 13.01 137.44 12.94L137.44 12.94L137.44 12.94Q137.69 12.88 137.82 12.71L137.82 12.71L137.82 12.71Q137.94 12.54 137.98 12.23L137.98 12.23L137.98 12.23Q138.03 11.91 138.03 11.40L138.03 11.40L138.03 9.49L138.03 9.49Q138.03 8.78 137.94 8.29L137.94 8.29L137.94 8.29Q137.86 7.80 137.67 7.50L137.67 7.50L137.67 7.50Q137.48 7.20 137.17 7.06L137.17 7.06L137.17 7.06Q136.86 6.93 136.40 6.93L136.40 6.93L136.40 6.93Q135.95 6.93 135.63 7.18L135.63 7.18L135.63 7.18Q135.31 7.43 135.07 7.88L135.07 7.88L135.07 7.88Q134.95 8.13 134.85 8.53L134.85 8.53L134.85 8.53Q134.76 8.93 134.76 9.37L134.76 9.37ZM142.72 6.93L141.69 6.93L141.69 6.30L141.69 6.30Q142.53 6.06 143.10 5.58L143.10 5.58L143.10 5.58Q143.67 5.10 143.95 4.47L143.95 4.47L144.66 4.47L144.66 6.16L146.27 6.16L146.27 6.93L144.66 6.93L144.66 11.23L144.66 11.23Q144.66 12.10 144.85 12.46L144.85 12.46L144.85 12.46Q145.04 12.82 145.49 12.82L145.49 12.82L145.49 12.82Q146.03 12.82 146.31 12.32L146.31 12.32L146.61 12.73L146.61 12.73Q146.22 13.72 144.76 13.72L144.76 13.72L144.76 13.72Q143.79 13.72 143.25 13.27L143.25 13.27L143.25 13.27Q142.72 12.82 142.72 12.01L142.72 12.01L142.72 6.93Z"></path></g><!----><g data-v-d3f97b9e="" id="236e5993-8038-44bd-9b14-571fadeb431c" transform="matrix(1.7403074491820585,0,0,1.7403074491820585,-1.379676747651743,-66.23754818636317)" stroke="none" fill="black"><path d="M90.716 58.23a.771.771 0 0 1 .345-.102l-.651-8.221-15.451 8.898 7.379 4.248 8.378-4.823zM38.218 79.959l-.784 9.898 26.347-15.169-8.355-4.635zM38.148 49.908l-.65 8.221c.119.01.239.039.347.102l8.789 5.061h.001l44.49 26.566-.785-9.898-52.192-30.052zM99.914 63.055l7.379-4.248-15.453-8.899-.65 8.221a.799.799 0 0 1 .348.102l8.376 4.824z"></path><path d="M64.904 53.248l8.394 4.613 17.184-9.895a.834.834 0 0 1 .579-.309.827.827 0 0 1 .712.313l17.581 10.121c.014.008.025.02.037.027.026.018.05.033.074.053a.965.965 0 0 1 .112.112c.02.023.036.049.053.074.009.014.02.023.038.061.014.027.025.055.036.082a.634.634 0 0 1 .044.148.532.532 0 0 1 .014.078c.003.027.002.053.002.08 0 .025.001.051-.002.078a.532.532 0 0 1-.014.078.634.634 0 0 1-.018.078c-.007.023-.017.047-.026.07-.011.027-.022.055-.047.105-.005.01-.014.016-.02.023a.717.717 0 0 1-.096.125c-.012.014-.021.025-.035.037a.817.817 0 0 1-.158.119L91.537 69.777a.823.823 0 0 1-.821 0L37.458 38.143 1.573 58.801 37.43 78.514l16.318-9.395-7.517-4.17-8.388 4.828a.815.815 0 0 1-.821 0c-.815-.451-16.51-9.107-17.285-9.568-.514-.305-1.114-.572-1.021-1.271.111-.842 1.209-1.262 1.861-1.637 2.014-1.16 4.028-2.318 6.042-3.479l10.17-5.855a.834.834 0 0 1 .579-.309.83.83 0 0 1 .713.313l53.053 30.545 35.863-19.709L91.125 38.15 64.904 53.248zM127 58.807L91.91 79.949l-.784 9.908L127 69.203z"></path><path d="M21.266 58.807l7.381 4.248 8.377-4.824a.806.806 0 0 1 .346-.102l-.651-8.221-15.453 8.899zM1 58.807v10.396l36.154 20.654-.925-9.908z"></path></g><!----></svg>